<svg width="49" height="48" viewBox="0 0 49 48" fill="none" xmlns="http://www.w3.org/2000/svg">
<path d="M36.375 21.5625C37.4105 21.5625 38.25 20.723 38.25 19.6875C38.25 18.652 37.4105 17.8125 36.375 17.8125C35.3395 17.8125 34.5 18.652 34.5 19.6875C34.5 20.723 35.3395 21.5625 36.375 21.5625Z" fill="#005AA6"/>
<path d="M40.6875 3.75H38.25V1.875C38.25 0.839438 37.4106 0 36.375 0C35.3394 0 34.5 0.839438 34.5 1.875V3.75H25.9688V1.875C25.9688 0.839438 25.1293 0 24.0938 0C23.0582 0 22.2188 0.839438 22.2188 1.875V3.75H13.7812V1.875C13.7812 0.839438 12.9418 0 11.9062 0C10.8707 0 10.0312 0.839438 10.0312 1.875V3.75H7.6875C3.552 3.75 0.1875 7.1145 0.1875 11.25V40.5C0.1875 44.6355 3.552 48 7.6875 48H22.0312C23.0668 48 23.9062 47.1606 23.9062 46.125C23.9062 45.0894 23.0668 44.25 22.0312 44.25H7.6875C5.61975 44.25 3.9375 42.5677 3.9375 40.5V11.25C3.9375 9.18225 5.61975 7.5 7.6875 7.5H10.0312V9.375C10.0312 10.4106 10.8707 11.25 11.9062 11.25C12.9418 11.25 13.7812 10.4106 13.7812 9.375V7.5H22.2188V9.375C22.2188 10.4106 23.0582 11.25 24.0938 11.25C25.1293 11.25 25.9688 10.4106 25.9688 9.375V7.5H34.5V9.375C34.5 10.4106 35.3394 11.25 36.375 11.25C37.4106 11.25 38.25 10.4106 38.25 9.375V7.5H40.6875C42.7552 7.5 44.4375 9.18225 44.4375 11.25V21.9375C44.4375 22.9731 45.2769 23.8125 46.3125 23.8125C47.3481 23.8125 48.1875 22.9731 48.1875 21.9375V11.25C48.1875 7.1145 44.823 3.75 40.6875 3.75Z" fill="#005AA6"/>
<path d="M36.8438 25.3125C30.5887 25.3125 25.5 30.4012 25.5 36.6562C25.5 42.9113 30.5887 48 36.8438 48C43.0988 48 48.1875 42.9113 48.1875 36.6562C48.1875 30.4012 43.0988 25.3125 36.8438 25.3125ZM36.8438 44.25C32.6566 44.25 29.25 40.8435 29.25 36.6562C29.25 32.469 32.6566 29.0625 36.8438 29.0625C41.0309 29.0625 44.4375 32.469 44.4375 36.6562C44.4375 40.8435 41.0309 44.25 36.8438 44.25Z" fill="#005AA6"/>
<path d="M39.5625 34.7812H38.7188V32.8125C38.7188 31.7769 37.8793 30.9375 36.8438 30.9375C35.8082 30.9375 34.9688 31.7769 34.9688 32.8125V36.6562C34.9688 37.6918 35.8082 38.5312 36.8438 38.5312H39.5625C40.5981 38.5312 41.4375 37.6918 41.4375 36.6562C41.4375 35.6207 40.5981 34.7812 39.5625 34.7812Z" fill="#005AA6"/>
<path d="M28.2188 21.5625C29.2543 21.5625 30.0938 20.723 30.0938 19.6875C30.0938 18.652 29.2543 17.8125 28.2188 17.8125C27.1832 17.8125 26.3438 18.652 26.3438 19.6875C26.3438 20.723 27.1832 21.5625 28.2188 21.5625Z" fill="#005AA6"/>
<path d="M20.0625 29.7188C21.098 29.7188 21.9375 28.8793 21.9375 27.8438C21.9375 26.8082 21.098 25.9688 20.0625 25.9688C19.027 25.9688 18.1875 26.8082 18.1875 27.8438C18.1875 28.8793 19.027 29.7188 20.0625 29.7188Z" fill="#005AA6"/>
<path d="M11.9062 21.5625C12.9418 21.5625 13.7812 20.723 13.7812 19.6875C13.7812 18.652 12.9418 17.8125 11.9062 17.8125C10.8707 17.8125 10.0312 18.652 10.0312 19.6875C10.0312 20.723 10.8707 21.5625 11.9062 21.5625Z" fill="#005AA6"/>
<path d="M11.9062 29.7188C12.9418 29.7188 13.7812 28.8793 13.7812 27.8438C13.7812 26.8082 12.9418 25.9688 11.9062 25.9688C10.8707 25.9688 10.0312 26.8082 10.0312 27.8438C10.0312 28.8793 10.8707 29.7188 11.9062 29.7188Z" fill="#005AA6"/>
<path d="M11.9062 37.875C12.9418 37.875 13.7812 37.0355 13.7812 36C13.7812 34.9645 12.9418 34.125 11.9062 34.125C10.8707 34.125 10.0312 34.9645 10.0312 36C10.0312 37.0355 10.8707 37.875 11.9062 37.875Z" fill="#005AA6"/>
<path d="M20.0625 37.875C21.098 37.875 21.9375 37.0355 21.9375 36C21.9375 34.9645 21.098 34.125 20.0625 34.125C19.027 34.125 18.1875 34.9645 18.1875 36C18.1875 37.0355 19.027 37.875 20.0625 37.875Z" fill="#005AA6"/>
<path d="M20.0625 21.5625C21.098 21.5625 21.9375 20.723 21.9375 19.6875C21.9375 18.652 21.098 17.8125 20.0625 17.8125C19.027 17.8125 18.1875 18.652 18.1875 19.6875C18.1875 20.723 19.027 21.5625 20.0625 21.5625Z" fill="#005AA6"/>
</svg>
