<svg width="48" height="49" viewBox="0 0 48 49" fill="none" xmlns="http://www.w3.org/2000/svg">
<path d="M11.1405 16.2725C10.569 12.5045 13.23 9.11152 17.295 7.86652C18.0168 7.64562 18.7956 7.70839 19.4727 8.04204C20.1497 8.37569 20.674 8.95508 20.9385 9.66202L22.242 13.142C22.4516 13.7018 22.4891 14.3114 22.3499 14.8927C22.2107 15.474 21.901 16.0004 21.4605 16.4045L17.583 19.961C17.3918 20.1367 17.2493 20.3589 17.1694 20.606C17.0895 20.8531 17.0749 21.1166 17.127 21.371L17.1615 21.527L17.2575 21.9185C17.343 22.2485 17.472 22.7135 17.6535 23.2685C18.0135 24.371 18.588 25.853 19.443 27.3335C20.298 28.814 21.294 30.053 22.068 30.9155C22.4711 31.3646 22.8925 31.797 23.331 32.2115L23.451 32.3225C23.6449 32.4943 23.8801 32.6129 24.1335 32.6668C24.3869 32.7207 24.6499 32.708 24.897 32.63L29.916 31.0505C30.4862 30.8713 31.097 30.8665 31.67 31.0367C32.2431 31.2069 32.7521 31.5445 33.132 32.006L35.5065 34.889C36.4965 36.089 36.3795 37.853 35.241 38.9135C32.13 41.813 27.852 42.4085 24.876 40.0145C21.2282 37.0724 18.153 33.4842 15.804 29.429C13.4356 25.3765 11.8534 20.9134 11.1405 16.274V16.2725ZM20.2695 21.5675L23.4885 18.6155C24.3694 17.8074 24.9888 16.7545 25.2673 15.5919C25.5458 14.4294 25.4706 13.2101 25.0515 12.0905L23.7465 8.61052C23.2141 7.18872 22.1595 6.02347 20.7977 5.35232C19.4359 4.68116 17.8694 4.55464 16.4175 4.99852C11.37 6.54352 7.317 11.069 8.175 16.7225C8.94449 21.7355 10.6529 26.5584 13.2105 30.938C15.7441 35.3111 19.0608 39.1805 22.995 42.353C27.4575 45.938 33.4185 44.7155 37.287 41.108C38.3939 40.0763 39.0656 38.6613 39.1651 37.1514C39.2646 35.6415 38.7844 34.1506 37.8225 32.9825L35.448 30.0995C34.6882 29.1762 33.6697 28.5009 32.5234 28.1604C31.3771 27.8199 30.1552 27.8297 29.0145 28.1885L24.849 29.4995C24.6625 29.3078 24.48 29.1122 24.3015 28.913C23.4454 27.9659 22.688 26.9341 22.041 25.8335C21.4111 24.7227 20.896 23.5507 20.5035 22.3355C20.4203 22.0811 20.3423 21.8251 20.2695 21.5675Z" fill="#005AA6"/>
</svg>
