<svg width="80" height="80" viewBox="0 0 80 80" fill="none" xmlns="http://www.w3.org/2000/svg">
<circle cx="40" cy="40" r="40" fill="#005AA6"/>
<path d="M54.6418 21.5509H50.1183V19.5273C50.1183 18.8726 49.4041 18.575 48.7494 18.575H45.2378C44.4046 16.1942 42.3214 15.0039 39.9406 15.0039C37.586 14.9153 35.4444 16.3591 34.6434 18.575H31.1913C30.5366 18.575 29.8819 18.8726 29.8819 19.5273V21.5509H25.3583C22.6777 21.5795 20.4846 23.6942 20.3586 26.3719V60.4764C20.3586 63.0953 22.7394 64.9999 25.3583 64.9999H54.6418C57.2606 64.9999 59.6414 63.0953 59.6414 60.4764V26.3721C59.5154 23.6942 57.3224 21.5795 54.6418 21.5509ZM32.2625 20.9558H35.5361C36.1075 20.8861 36.5665 20.4513 36.667 19.8845C37.0195 18.3494 38.3662 17.2476 39.9406 17.2061C41.5005 17.2534 42.8269 18.3587 43.1546 19.8845C43.2614 20.4709 43.7507 20.9112 44.345 20.9558H47.7376V25.7173H32.2625V20.9558ZM57.2606 60.4765C57.2606 61.786 55.9512 62.6192 54.6418 62.6192H25.3583C24.0489 62.6192 22.7394 61.786 22.7394 60.4765V26.3721C22.8609 25.0091 23.9901 23.9568 25.3583 23.9318H29.8817V26.9673C29.9446 27.6342 30.5222 28.1331 31.1912 28.0982H48.7493C49.4306 28.1355 50.0263 27.6434 50.1182 26.9673V23.9317H54.6416C56.0098 23.9568 57.1391 25.009 57.2605 26.3719V60.4765H57.2606Z" fill="white"/>
<path d="M35.417 41.609C34.9705 41.1384 34.2293 41.1119 33.7504 41.5496L29.9412 45.1802L28.3342 43.5136C27.8877 43.043 27.1465 43.0166 26.6676 43.4541C26.2065 43.9372 26.2065 44.6972 26.6676 45.1802L29.1078 47.68C29.319 47.9165 29.6241 48.0473 29.941 48.0372C30.255 48.0327 30.5545 47.9043 30.7743 47.68L35.4168 43.2756C35.877 42.8534 35.9078 42.138 35.4855 41.6778C35.4638 41.6538 35.4409 41.6309 35.417 41.609Z" fill="white"/>
<path d="M52.4992 44.1682H38.8098C38.1523 44.1682 37.6194 44.7011 37.6194 45.3586C37.6194 46.0161 38.1523 46.549 38.8098 46.549H52.4992C53.1566 46.549 53.6895 46.0161 53.6895 45.3586C53.6895 44.7011 53.1566 44.1682 52.4992 44.1682Z" fill="white"/>
<path d="M35.417 32.0858C34.9705 31.6152 34.2293 31.5887 33.7504 32.0264L29.9412 35.657L28.3342 33.9904C27.8877 33.5198 27.1465 33.4932 26.6676 33.9309C26.2065 34.414 26.2065 35.174 26.6676 35.657L29.1078 38.1568C29.319 38.3933 29.6241 38.5241 29.941 38.514C30.255 38.5095 30.5545 38.3811 30.7743 38.1568L35.4168 33.7524C35.877 33.3302 35.9078 32.6148 35.4855 32.1546C35.4638 32.1306 35.4409 32.1077 35.417 32.0858Z" fill="white"/>
<path d="M52.4992 34.6451H38.8098C38.1523 34.6451 37.6194 35.1781 37.6194 35.8355C37.6194 36.493 38.1523 37.0259 38.8098 37.0259H52.4992C53.1566 37.0259 53.6895 36.493 53.6895 35.8355C53.6895 35.1781 53.1566 34.6451 52.4992 34.6451Z" fill="white"/>
<path d="M35.417 51.1319C34.9705 50.6613 34.2293 50.6349 33.7504 51.0725L29.9412 54.7031L28.3342 53.0365C27.8877 52.5659 27.1465 52.5395 26.6676 52.977C26.2065 53.4601 26.2065 54.2201 26.6676 54.7031L29.1078 57.2029C29.319 57.4394 29.6241 57.5702 29.941 57.5601C30.255 57.5556 30.5545 57.4272 30.7743 57.2029L35.4168 52.7985C35.877 52.3763 35.9078 51.6609 35.4855 51.2007C35.4638 51.1768 35.4409 51.1539 35.417 51.1319Z" fill="white"/>
<path d="M52.4992 53.6914H38.8098C38.1523 53.6914 37.6194 54.2243 37.6194 54.8818C37.6194 55.5392 38.1523 56.0722 38.8098 56.0722H52.4992C53.1566 56.0722 53.6895 55.5392 53.6895 54.8818C53.6895 54.2243 53.1566 53.6914 52.4992 53.6914Z" fill="white"/>
</svg>
