<svg width="50" height="50" viewBox="0 0 50 50" fill="none" xmlns="http://www.w3.org/2000/svg">
<g clip-path="url(#clip0_69_397)">
<path d="M28.0536 16.3321C28.0556 15.9275 27.7293 15.5981 27.3248 15.5961C27.3236 15.5961 27.3224 15.5961 27.3211 15.5961C26.9183 15.5961 26.5909 15.9217 26.5889 16.3249L26.587 16.6938C26.0688 16.2949 25.4378 16.069 24.7355 16.069C23.0082 16.069 21.2214 17.5634 21.2214 20.0641C21.2214 22.3449 22.7661 24.2005 24.6648 24.2005C25.4902 24.2005 26.2375 23.8526 26.8177 23.2668C26.933 23.5001 27.0841 23.7149 27.2681 23.8999C27.6765 24.3103 28.2026 24.5364 28.7497 24.5364C30.333 24.5364 31.3356 23.4341 31.7461 22.4025C32.3832 20.8007 32.4977 19.451 32.1175 18.0265C32.1154 18.019 32.1133 18.0114 32.111 18.0038C31.5354 16.0966 30.2475 14.5349 28.4846 13.6064C26.722 12.6781 24.7051 12.4999 22.8053 13.1048C21.0052 13.6778 19.5075 14.9132 18.5883 16.5834C17.6687 18.2541 17.4269 20.1802 17.9074 22.007C18.3236 23.5893 19.222 24.9544 20.5058 25.9545C21.7419 26.9175 23.2815 27.4717 24.841 27.5148C24.848 27.515 24.8548 27.5151 24.8616 27.5151C25.2566 27.5151 25.5823 27.2004 25.5934 26.803C25.6046 26.3986 25.2859 26.0618 24.8816 26.0507C22.2741 25.9786 19.9889 24.1626 19.324 21.6345C18.9395 20.1727 19.134 18.6298 19.8715 17.2897C20.609 15.9497 21.8086 14.9592 23.2497 14.5006C24.7727 14.0157 26.3894 14.1585 27.802 14.9024C29.2109 15.6444 30.2413 16.8911 30.7047 18.4139C31.0152 19.5865 30.8279 20.7478 30.3852 21.8613C30.2403 22.2252 29.7912 23.0717 28.7498 23.0717C28.5414 23.0717 28.3826 22.9434 28.3065 22.8669C28.1289 22.6883 28.0235 22.4254 28.0248 22.1637L28.0536 16.3321ZM24.6648 22.7358C23.7132 22.7358 22.6861 21.7143 22.6861 20.0641C22.6861 18.4802 23.728 17.5338 24.7355 17.5338C25.7886 17.5338 26.5323 18.5121 26.571 19.9273L26.5697 20.1951C26.5139 21.6093 25.6809 22.7358 24.6648 22.7358Z" fill="white"/>
<path d="M47.2069 46.8602C47.2069 46.8599 47.2069 46.8596 47.2069 46.8593V21.8739C47.2069 21.031 46.8632 20.2091 46.2639 19.6167C46.2631 19.6159 46.2624 19.615 46.2616 19.6142C46.2612 19.6138 46.2608 19.6134 46.2603 19.6129C46.2589 19.6116 46.2577 19.6102 46.2564 19.6089L43.3779 16.7838V15.132C43.3779 14.7274 43.0501 14.3996 42.6455 14.3996C42.2409 14.3996 41.9131 14.7274 41.9131 15.132V22.9203L28.6056 36.2042L26.5126 35.0541C25.5657 34.5336 24.4346 34.5335 23.4875 35.0541L21.3944 36.2042L8.08694 22.9203V10.2775C8.08694 9.33526 8.85358 8.56861 9.79579 8.56861H40.2043C41.1465 8.56861 41.9131 9.33526 41.9131 10.2775V12.0146C41.9131 12.4191 42.2409 12.7469 42.6455 12.7469C43.0501 12.7469 43.3779 12.4191 43.3779 12.0146V10.2775C43.3779 8.5275 41.9542 7.10388 40.2043 7.10388H33.5152L27.1303 0.837157C27.1233 0.830322 27.1162 0.823584 27.109 0.817139C25.9067 -0.272331 24.0934 -0.272429 22.891 0.817139C22.8838 0.823584 22.8768 0.830322 22.8698 0.837157L16.4847 7.10388H9.7957C8.04583 7.10388 6.6221 8.5275 6.6221 10.2775V16.7839L3.74361 19.609C3.74243 19.6102 3.74126 19.6114 3.74009 19.6127C3.7395 19.6133 3.73892 19.6137 3.73833 19.6143C3.73726 19.6154 3.73638 19.6165 3.7354 19.6175C3.13662 20.2098 2.79309 21.0315 2.79309 21.8739V30.2313C2.79309 30.6358 3.121 30.9636 3.52546 30.9636C3.92992 30.9636 4.25783 30.6358 4.25783 30.2313V21.8739C4.25783 21.6692 4.29728 21.4676 4.36817 21.2778L6.83703 23.7423L20.0571 36.939L4.25792 45.6212V33.423C4.25792 33.0185 3.93002 32.6907 3.52556 32.6907C3.12109 32.6907 2.79319 33.0185 2.79319 33.423V46.8593V46.8601C2.79319 46.864 2.79338 46.8678 2.79348 46.8717C2.80022 48.5978 4.20617 50 5.93387 50H32.9725C33.3771 50 33.7049 49.6722 33.7049 49.2676C33.7049 48.8631 33.3771 48.5353 32.9725 48.5353H5.93387C5.14956 48.5353 4.4913 47.993 4.30948 47.2642L21.6185 37.7524L24.1929 36.3376C24.6983 36.0599 25.3017 36.0598 25.8071 36.3377L28.3814 37.7524L45.6905 47.2643C45.5087 47.993 44.8503 48.5353 44.0661 48.5353H36.1643C35.7598 48.5353 35.432 48.8631 35.432 49.2676C35.432 49.6722 35.7598 50 36.1643 50H44.0662C45.7938 50 47.1999 48.5978 47.2066 46.8717C47.2067 46.8678 47.2069 46.864 47.2069 46.8602ZM23.8845 1.89372C24.5229 1.32423 25.4773 1.32413 26.1156 1.89372L31.4242 7.10388H18.5759L23.8845 1.89372ZM6.6222 21.4581L5.29779 20.136L6.6222 18.8362V21.4581ZM43.1629 23.7423L45.6318 21.2777C45.7027 21.4675 45.7421 21.6692 45.7421 21.8739V45.6211L29.9427 36.939L43.1629 23.7423ZM44.7023 20.136L43.3779 21.4581V18.8362L44.7023 20.136Z" fill="white"/>
</g>
<defs>
<clipPath id="clip0_69_397">
<rect width="50" height="50" fill="white"/>
</clipPath>
</defs>
</svg>
