<svg width="80" height="80" viewBox="0 0 80 80" fill="none" xmlns="http://www.w3.org/2000/svg">
<circle cx="40" cy="40" r="40" fill="#005AA6"/>
<g clip-path="url(#clip0_145_537)">
<path d="M59.1818 35.5299C60.1726 34.012 59.9896 32.0371 58.7367 30.7272C58.1846 30.1498 57.9538 29.3387 58.1193 28.5573C58.4949 26.7839 57.6109 25.0084 55.9694 24.2396C55.2459 23.9007 54.7377 23.2277 54.6097 22.4392C54.3194 20.6499 52.8535 19.3137 51.0452 19.1897C50.2483 19.135 49.5312 18.691 49.127 18.002C48.2098 16.4386 46.3608 15.7221 44.6293 16.2596C43.8664 16.4965 43.0375 16.3414 42.4116 15.845C40.9916 14.7185 39.0083 14.7185 37.5884 15.845C36.9626 16.3416 36.1335 16.4965 35.3707 16.2596C33.6397 15.722 31.7902 16.4385 30.8731 18.002C30.4689 18.691 29.7519 19.135 28.9549 19.1897C27.1465 19.3137 25.6808 20.65 25.3904 22.4392C25.2624 23.2277 24.7541 23.9007 24.0308 24.2396C22.3894 25.0085 21.5053 26.784 21.8808 28.5573C22.0463 29.3387 21.8154 30.1499 21.2634 30.7273C20.0107 32.0372 19.8276 34.0122 20.8184 35.5301C21.255 36.1989 21.3328 37.0388 21.0265 37.7766C20.3315 39.4506 20.8743 41.3583 22.3464 42.4157C22.9952 42.8819 23.3711 43.6368 23.352 44.4354C23.3087 46.2474 24.504 47.8302 26.2587 48.2845C26.7767 48.4186 27.2267 48.7183 27.5491 49.1271L23.5136 58.8696C22.9481 60.2349 24.228 61.6408 25.6395 61.2075L30.0576 59.8517C30.1867 59.8123 30.326 59.87 30.3892 59.9891L32.5545 64.0719C33.2472 65.378 35.1461 65.2858 35.711 63.922L39.9171 53.7676C39.9723 53.7657 40.0275 53.7657 40.0826 53.7676L44.2888 63.922C44.8547 65.2879 46.7535 65.3761 47.4453 64.072L49.6107 59.9891C49.6737 59.8699 49.8131 59.8122 49.9422 59.8518L54.3603 61.2076C55.7725 61.6411 57.0515 60.2342 56.4863 58.8697L52.4506 49.1272C52.7731 48.7184 53.2231 48.4187 53.741 48.2846C55.4957 47.8304 56.6909 46.2476 56.6478 44.4355C56.6286 43.6369 57.0046 42.882 57.6534 42.4159C59.1256 41.3584 59.6683 39.4507 58.9733 37.7767C58.6674 37.0386 58.7452 36.1988 59.1818 35.5299ZM34.3579 63.3613C34.266 63.5831 33.9608 63.5967 33.8488 63.3855L31.6834 59.3027C31.2917 58.5641 30.4274 58.2063 29.6282 58.4514L25.2101 59.8073C24.9809 59.8774 24.7753 59.6516 24.8671 59.43L28.4474 50.7862C29.2552 51.8927 30.6056 52.5094 32.0272 52.3434C32.8205 52.2509 33.607 52.5554 34.1309 53.1583C34.8909 54.0333 35.9619 54.4978 37.0546 54.4977C37.4002 54.4977 37.7479 54.4493 38.0887 54.3547L34.3579 63.3613ZM54.7903 59.8072L50.3722 58.4513C49.5731 58.2062 48.7085 58.5641 48.3169 59.3026L46.1516 63.3854C46.0398 63.5964 45.7341 63.5827 45.6423 63.3612L41.9123 54.3564C43.3302 54.7499 44.8692 54.3095 45.8695 53.1581C46.3933 52.5551 47.1794 52.2504 47.9732 52.3432C49.3961 52.5095 50.7456 51.8926 51.5529 50.7861L55.1334 59.4296C55.2254 59.6521 55.0187 59.877 54.7903 59.8072ZM57.9553 34.7293C57.2539 35.8038 57.1289 37.1529 57.6209 38.338C58.0535 39.3801 57.7157 40.5676 56.7992 41.226C55.7571 41.9746 55.1531 43.1874 55.1838 44.4701C55.2108 45.5983 54.4666 46.5836 53.3742 46.8663C52.3525 47.1309 51.4945 47.7959 50.9799 48.6952C50.9785 48.6979 50.9771 48.7004 50.9757 48.703C50.8666 48.8947 50.7721 49.0964 50.696 49.3078C50.3137 50.3695 49.2646 51.02 48.1432 50.8886C46.8689 50.7396 45.6053 51.2291 44.7638 52.1978C44.0238 53.0495 42.8101 53.2764 41.8122 52.7495C41.4729 52.5702 41.1135 52.4458 40.7465 52.3739C40.7435 52.3732 40.7404 52.3725 40.7374 52.3719C40.2499 52.2775 39.7489 52.2776 39.2614 52.3723C39.2597 52.3727 39.258 52.3731 39.2563 52.3734C38.8884 52.4453 38.5283 52.5699 38.1882 52.7495C37.1904 53.2765 35.9767 53.0495 35.2367 52.1978C34.4947 51.3438 33.4251 50.8623 32.3088 50.8623C32.159 50.8623 32.0081 50.871 31.8572 50.8887C30.7369 51.0198 29.6866 50.3697 29.3043 49.3079C29.2282 49.0967 29.1339 48.8952 29.0249 48.7036C29.0233 48.7005 29.0216 48.6976 29.0199 48.6945C28.5053 47.7955 27.6476 47.1308 26.6261 46.8663C25.5337 46.5835 24.7897 45.5983 24.8166 44.4702C24.8473 43.1874 24.2434 41.9747 23.2012 41.226C22.2848 40.5677 21.9468 39.3801 22.3795 38.3379C22.8715 37.1528 22.7465 35.8037 22.0451 34.7292C21.4284 33.7844 21.5423 32.5549 22.3223 31.7395C23.2091 30.8121 23.5799 29.509 23.3141 28.2537C23.0803 27.1498 23.6307 26.0446 24.6525 25.5658C25.8145 25.0215 26.6309 23.9404 26.8365 22.6738C27.0173 21.5599 27.9298 20.7281 29.0555 20.6509C30.3357 20.5631 31.4876 19.8499 32.1368 18.743C32.7078 17.7698 33.8594 17.3239 34.9366 17.6584C36.1621 18.039 37.4939 17.7901 38.4991 16.9925C39.3829 16.2911 40.6177 16.2911 41.5018 16.9925C42.507 17.79 43.8385 18.0391 45.0642 17.6584C46.1418 17.3238 47.2932 17.7698 47.864 18.743C48.5132 19.8498 49.6652 20.563 50.9453 20.6509C52.071 20.7281 52.9835 21.56 53.1643 22.6738C53.3699 23.9404 54.1864 25.0215 55.3484 25.5659C56.3702 26.0446 56.9205 27.1498 56.6867 28.2537C56.4209 29.509 56.7916 30.8121 57.6785 31.7395C58.4581 32.5549 58.572 33.7844 57.9553 34.7293Z" fill="white"/>
<path d="M26.1281 33.7626C26.5292 33.812 26.8951 33.5266 26.9445 33.1252C27.7532 26.5515 33.366 21.5944 40.0001 21.5944C46.6374 21.5944 52.2504 26.5542 53.0566 33.1314C53.1021 33.5026 53.4179 33.7748 53.7825 33.7748C53.8123 33.7748 53.8423 33.7729 53.8726 33.7692C54.274 33.72 54.5596 33.3546 54.5105 32.9532C53.6144 25.6425 47.3763 20.1296 40.0001 20.1296C32.6274 20.1296 26.3897 25.6396 25.4906 32.9463C25.4413 33.3478 25.7267 33.7132 26.1281 33.7626Z" fill="white"/>
<path d="M53.8726 35.7286C53.4724 35.6798 53.1059 35.965 53.0566 36.3665C52.2508 42.944 46.6377 47.9041 40.0001 47.9041C33.3655 47.9041 27.7527 42.9465 26.9442 36.3722C26.8949 35.9709 26.5297 35.6856 26.1279 35.7347C25.7266 35.7841 25.441 36.1496 25.4904 36.551C26.3891 43.8584 32.6267 49.3687 40 49.3687C47.3766 49.3687 53.6146 43.8555 54.5103 36.5445C54.5597 36.1431 54.2741 35.7778 53.8726 35.7286Z" fill="white"/>
<path d="M50.3418 31.7267C50.1556 31.1538 49.6465 30.7697 49.0444 30.7481L43.3021 30.5421L41.3317 25.1445C41.1252 24.5786 40.6025 24.213 40.0002 24.213C39.3978 24.213 38.8752 24.5786 38.6686 25.1445L36.6982 30.5421L30.9559 30.7481C30.354 30.7697 29.8447 31.1538 29.6586 31.7267C29.4724 32.2995 29.6586 32.9097 30.1329 33.281L34.6574 36.8229L33.0789 42.3479C32.9134 42.9271 33.1214 43.5301 33.6088 43.8842C34.0956 44.2379 34.7334 44.25 35.2335 43.9133L40.0001 40.7046L44.7668 43.9131C45.2663 44.2494 45.9041 44.2381 46.3915 43.884C46.8789 43.53 47.0868 42.927 46.9213 42.3477L45.3428 36.8228L49.8673 33.2809C50.3417 32.9096 50.5279 32.2995 50.3418 31.7267ZM44.415 35.689C43.9585 36.0464 43.7664 36.6375 43.9258 37.1947L45.4775 42.6259L40.7918 39.4719C40.5513 39.31 40.2757 39.229 40.0001 39.229C39.7245 39.229 39.4489 39.31 39.2085 39.4718L34.5226 42.6258L36.0744 37.1947C36.2337 36.6373 36.0417 36.0464 35.5852 35.689L31.1374 32.2072L36.7824 32.0046C37.3617 31.9838 37.8644 31.6185 38.0632 31.074L40.0002 25.768L41.9372 31.074C42.136 31.6185 42.6387 31.9838 43.2179 32.0045L48.8628 32.2071L44.415 35.689Z" fill="white"/>
</g>
<defs>
<clipPath id="clip0_145_537">
<rect width="50" height="50" fill="white" transform="translate(15 15)"/>
</clipPath>
</defs>
</svg>
