<svg width="80" height="80" viewBox="0 0 80 80" fill="none" xmlns="http://www.w3.org/2000/svg">
<circle cx="40" cy="40" r="40" fill="#005AA6"/>
<path d="M23.794 53.6669C23.094 53.6669 22.4211 53.8416 21.8241 54.1697C18.6793 50.1383 16.9531 45.1304 16.9531 40C16.9531 27.2917 27.2917 16.9531 40 16.9531C41.545 16.9531 43.0891 17.1069 44.5898 17.4101C45.1178 17.5169 45.6335 17.1751 45.7404 16.6464C45.8472 16.1177 45.5054 15.6027 44.9767 15.4955C43.3489 15.1667 41.6747 15 40 15C33.3224 15 27.0441 17.6005 22.3223 22.3223C17.6005 27.0441 15 33.3224 15 40C15 45.6171 16.9073 51.0989 20.3799 55.4934C19.9328 56.1613 19.6925 56.9464 19.6925 57.7685C19.6925 58.8641 20.1193 59.894 20.8941 60.6684C21.6685 61.4432 22.6984 61.87 23.794 61.87C24.8896 61.87 25.9196 61.4432 26.6943 60.6684C27.4691 59.894 27.8956 58.8637 27.8956 57.7681C27.8956 56.6729 27.4691 55.6425 26.6943 54.8682C25.9196 54.0934 24.8896 53.6669 23.794 53.6669ZM25.313 59.2875C24.9075 59.6934 24.3678 59.9169 23.794 59.9169C23.2203 59.9169 22.6809 59.6934 22.275 59.2875C21.8691 58.8816 21.6456 58.3422 21.6456 57.7685C21.6456 57.1944 21.8691 56.655 22.275 56.2491C22.6805 55.8432 23.2203 55.62 23.794 55.62C24.3678 55.62 24.9072 55.8436 25.313 56.2491C25.7189 56.655 25.9425 57.1944 25.9425 57.7685C25.9425 58.3422 25.7189 58.8816 25.313 59.2875Z" fill="white"/>
<path d="M59.6195 24.5055C60.6811 22.9129 60.5106 20.7354 59.1064 19.3313C58.3316 18.5569 57.3017 18.13 56.2061 18.13C55.1105 18.13 54.0805 18.5569 53.3058 19.3313C52.531 20.106 52.1045 21.136 52.1045 22.2316C52.1045 23.3271 52.531 24.3571 53.3058 25.1319C54.0805 25.9066 55.1105 26.3331 56.2061 26.3331C56.9061 26.3331 57.579 26.1584 58.176 25.8304C61.3208 29.8621 63.047 34.8697 63.047 40C63.047 52.7083 52.7084 63.0469 40.0001 63.0469C38.4704 63.0469 36.9407 62.8962 35.4541 62.5987C34.9254 62.493 34.4108 62.836 34.3048 63.3647C34.1991 63.8938 34.542 64.408 35.0708 64.5141C36.6832 64.8364 38.3419 65 40.0001 65C46.6777 65 52.956 62.3996 57.6778 57.6777C62.3996 52.9559 65.0001 46.6777 65.0001 40C65.0001 34.3825 63.0924 28.9004 59.6195 24.5055ZM54.6871 23.751C54.2812 23.3451 54.0576 22.8057 54.0576 22.2316C54.0576 21.6578 54.2812 21.1184 54.6871 20.7126C55.0926 20.3067 55.6324 20.0831 56.2061 20.0831C56.7798 20.0831 57.3196 20.3067 57.7255 20.7126C58.5628 21.5503 58.5628 22.9133 57.7255 23.751C57.3196 24.1565 56.7798 24.38 56.2061 24.38C55.632 24.38 55.0926 24.1565 54.6871 23.751Z" fill="white"/>
<path d="M35.9702 56.7969C35.9702 57.3363 36.4078 57.7734 36.9468 57.7734H43.053C43.5924 57.7734 44.0295 57.3363 44.0295 56.7969V54.9036C45.3136 54.558 46.5411 54.0491 47.6947 53.3846L49.0314 54.7213C49.2145 54.9044 49.4628 55.0074 49.7222 55.0074C49.9808 55.0074 50.2296 54.9044 50.4127 54.7209L54.7286 50.4019C55.1097 50.0204 55.1097 49.4021 54.7286 49.021L53.3935 47.6859C54.058 46.5323 54.5669 45.3047 54.9125 44.0207H56.7985C57.3379 44.0207 57.775 43.5835 57.775 43.0441V36.9379C57.775 36.3985 57.3379 35.9614 56.7985 35.9614H54.9121C54.5665 34.6777 54.058 33.4502 53.3935 32.2966L54.7214 30.9687C54.9045 30.7856 55.0075 30.5369 55.0075 30.2779C55.0071 30.0188 54.9041 29.7701 54.721 29.587L50.4016 25.2711C50.0205 24.89 49.4021 24.89 49.0207 25.2715L47.6947 26.5978C46.5411 25.9333 45.3136 25.4244 44.0295 25.0788V23.2031C44.0295 22.6637 43.5924 22.2266 43.053 22.2266H36.9468C36.4078 22.2266 35.9702 22.6637 35.9702 23.2031V25.0792C34.6866 25.4244 33.459 25.9333 32.3054 26.5978L30.9791 25.2715C30.598 24.8904 29.9796 24.89 29.5981 25.2711L25.2791 29.5874C25.0957 29.7705 24.9927 30.0188 24.9927 30.2779C24.9927 30.5369 25.0957 30.7856 25.2788 30.9687L26.6067 32.2966C25.9421 33.4502 25.4333 34.6774 25.0876 35.9614H23.2051C22.6657 35.9614 22.2285 36.3985 22.2285 36.9376L22.2251 43.0437C22.2247 43.3028 22.3277 43.5515 22.5108 43.7346C22.6939 43.9177 22.9423 44.0207 23.2017 44.0207H25.0876C25.4333 45.3047 25.9421 46.5323 26.6067 47.6859L25.2715 49.021C24.8904 49.4021 24.89 50.0204 25.2715 50.4019L29.5875 54.7209C29.7706 54.904 30.0189 55.0074 30.2779 55.0074H30.2783C30.5373 55.0074 30.7857 54.9044 30.9688 54.7213L32.3051 53.3846C33.459 54.0491 34.6866 54.558 35.9702 54.9036V56.7969ZM32.6881 51.3308C32.3016 51.0809 31.7931 51.1351 31.4673 51.4605L30.2783 52.6495L27.3429 49.7118L28.5308 48.5236C28.8562 48.1982 28.9104 47.6897 28.6605 47.3032C27.7751 45.933 27.1525 44.4312 26.8107 42.8389C26.7139 42.3891 26.3164 42.0676 25.8559 42.0676H24.1786L24.1809 37.9145H25.8559C26.3164 37.9145 26.7139 37.5933 26.8107 37.1432C27.1525 35.5513 27.7751 34.0495 28.6605 32.6792C28.9104 32.2928 28.8562 31.7843 28.5308 31.4589L27.3505 30.2782L30.2882 27.3428L31.4673 28.5223C31.7931 28.8477 32.3012 28.9015 32.6881 28.652C34.0579 27.7666 35.5598 27.1441 37.152 26.8023C37.6018 26.7054 37.9233 26.3075 37.9233 25.8475V24.1797H42.0764V25.8471C42.0764 26.3075 42.3976 26.7054 42.8477 26.8019C44.4396 27.1441 45.9418 27.7663 47.3117 28.6517C47.6981 28.9015 48.2066 28.8477 48.532 28.522L49.7115 27.3428L52.6492 30.2782L51.4689 31.4585C51.1432 31.7843 51.0894 32.2928 51.3392 32.6792C52.2246 34.0495 52.8468 35.5513 53.189 37.1432C53.2855 37.5933 53.6834 37.9145 54.1438 37.9145H55.8219V42.0676H54.1438C53.6834 42.0676 53.2859 42.3891 53.189 42.8389C52.8472 44.4308 52.2246 45.933 51.3392 47.3029C51.0894 47.6897 51.1436 48.1982 51.4689 48.5236L52.6568 49.7115L49.7214 52.6492L48.5324 51.4605C48.2066 51.1347 47.6981 51.0809 47.3117 51.3308C45.9415 52.2162 44.4396 52.8384 42.8477 53.1805C42.3976 53.2774 42.0764 53.6749 42.0764 54.1354V55.8203H37.9233V54.1354C37.9233 53.6753 37.6018 53.2774 37.152 53.1805C35.5601 52.8387 34.0583 52.2162 32.6881 51.3308Z" fill="white"/>
<path d="M48.0691 40C48.0691 35.5506 44.4494 31.9308 39.9999 31.9308C35.5504 31.9308 31.9307 35.5506 31.9307 40C31.9307 44.4495 35.5504 48.0692 39.9999 48.0692C44.4494 48.0692 48.0691 44.4495 48.0691 40ZM33.8838 40C33.8838 36.6274 36.6273 33.8839 39.9999 33.8839C43.3725 33.8839 46.116 36.6278 46.116 40C46.116 43.3722 43.3725 46.1161 39.9999 46.1161C36.6273 46.1161 33.8838 43.3726 33.8838 40Z" fill="white"/>
<path d="M48.9919 18.6934C49.2491 18.6934 49.5008 18.5889 49.6824 18.4073C49.864 18.2246 49.9685 17.9728 49.9685 17.7157C49.9685 17.4601 49.8644 17.208 49.6824 17.0252C49.5008 16.8437 49.2491 16.7391 48.9919 16.7391C48.7341 16.7391 48.4834 16.8437 48.3019 17.0252C48.1199 17.208 48.0154 17.459 48.0154 17.7157C48.0154 17.9736 48.1199 18.2246 48.3019 18.4073C48.4834 18.5889 48.7341 18.6934 48.9919 18.6934Z" fill="white"/>
<path d="M31.0508 61.3242C30.7941 61.3242 30.5419 61.4287 30.3603 61.6103C30.1787 61.7919 30.0742 62.0441 30.0742 62.3008C30.0742 62.5587 30.1787 62.8097 30.3603 62.9912C30.5419 63.1728 30.7941 63.2773 31.0508 63.2773C31.3075 63.2773 31.5597 63.1728 31.7412 62.9912C31.9228 62.8097 32.0273 62.5575 32.0273 62.3008C32.0273 62.0441 31.9228 61.7919 31.7412 61.6103C31.5597 61.4287 31.3075 61.3242 31.0508 61.3242Z" fill="white"/>
</svg>
