<svg width="159" height="33" viewBox="0 0 159 33" fill="none" xmlns="http://www.w3.org/2000/svg">
<path d="M22.7009 26.8418L1.47119 11.8721C-0.680184 10.3552 0.0511414 7.19668 2.73385 6.45394L25.2973 0.193888C25.7752 0.0175908 26.2874 -0.0396388 26.7914 0.0269536C27.2953 0.0935461 27.7764 0.282037 28.1949 0.576786C28.6132 0.871535 28.9569 1.26404 29.1971 1.72172C29.4373 2.1794 29.5674 2.68905 29.5763 3.20839L28.2391 24.437C28.0806 26.9567 24.8523 28.3587 22.7009 26.8418Z" fill="#E9327C"/>
<path d="M15.9633 30.5371L3.45623 5.53444C3.17033 4.96246 3.04452 4.32086 3.09268 3.68043C3.14083 3.03999 3.36108 2.42559 3.72912 1.90498C4.09717 1.38437 4.59872 0.977778 5.17847 0.730037C5.75821 0.482296 6.39363 0.403039 7.01464 0.50101L30.1934 4.15784C30.727 4.24204 31.2335 4.45452 31.6712 4.77781C32.1088 5.1011 32.4652 5.52596 32.7109 6.01747C32.9566 6.50897 33.0848 7.05307 33.0846 7.60504C33.0845 8.157 32.9563 8.70108 32.7105 9.19249L22.0329 30.5383C21.7461 31.1087 21.3111 31.5872 20.7757 31.9212C20.2402 32.2553 19.6251 32.4319 18.9978 32.4318C18.3704 32.4317 17.7553 32.2548 17.22 31.9206C16.6846 31.5863 16.2498 31.1076 15.9633 30.5371Z" fill="#1DACE3"/>
<path d="M29.5217 4.05027L17.9672 2.22729L3.78088 6.16478L9.44333 17.4885L22.703 26.8417C22.9956 27.0458 23.3173 27.2021 23.6568 27.305L28.6933 17.2369L29.5217 4.05027Z" fill="#001A49"/>
<path d="M88.0446 6.97292C88.0446 6.53389 88.1719 6.10474 88.4105 5.73969C88.6491 5.37466 88.9883 5.09015 89.3851 4.92214C89.7819 4.75414 90.2184 4.71018 90.6397 4.79582C91.0609 4.88148 91.4478 5.09289 91.7515 5.40332C92.0552 5.71376 92.262 6.10929 92.3458 6.53987C92.4295 6.97046 92.3866 7.41678 92.2222 7.82239C92.0579 8.22799 91.7795 8.57467 91.4225 8.81858C91.0654 9.06248 90.6455 9.19267 90.216 9.19267C89.6419 9.18669 89.093 8.9509 88.687 8.53591C88.2811 8.12091 88.0504 7.55978 88.0446 6.97292ZM88.4067 10.2777H92.0266V22.6091H88.4067V10.2777Z" fill="#181817"/>
<path d="M107.661 16.4434C107.704 17.2585 107.587 18.074 107.32 18.8432C107.053 19.6121 106.639 20.3197 106.103 20.9249C105.568 21.53 104.92 22.0208 104.198 22.3694C103.476 22.7177 102.694 22.9169 101.896 22.9551C101.225 22.9923 100.555 22.8767 99.9326 22.6165C99.3109 22.3562 98.7535 21.9578 98.3009 21.4502V27.5422H94.6821V10.2777H98.3009V11.4366C98.7536 10.9291 99.311 10.531 99.9329 10.2709C100.555 10.0109 101.225 9.89544 101.896 9.93293C102.694 9.97102 103.476 10.1699 104.198 10.5182C104.92 10.8666 105.568 11.3573 106.103 11.9624C106.639 12.5675 107.053 13.2748 107.32 14.0439C107.587 14.8129 107.704 15.6283 107.661 16.4434ZM104.043 16.4434C104.028 15.866 103.848 15.3058 103.524 14.8327C103.2 14.3598 102.746 13.9949 102.22 13.7841C101.694 13.5731 101.119 13.5256 100.567 13.6471C100.015 13.7687 99.5096 14.0541 99.1152 14.4675C98.7207 14.881 98.4544 15.4043 98.3494 15.9718C98.2444 16.5392 98.3056 17.1258 98.5251 17.6579C98.7447 18.1901 99.1128 18.6442 99.5836 18.9635C100.054 19.2829 100.607 19.4531 101.172 19.4531C101.56 19.471 101.947 19.4047 102.308 19.2588C102.669 19.1128 102.996 18.8903 103.267 18.6062C103.538 18.3219 103.748 17.9824 103.881 17.6095C104.015 17.2368 104.07 16.8393 104.043 16.4434Z" fill="#181817"/>
<path d="M118.828 18.9073C118.828 21.744 116.415 22.9525 113.809 22.9525C112.756 23.0499 111.699 22.8221 110.775 22.2987C109.85 21.7753 109.1 20.9804 108.622 20.0166L111.758 18.1924C111.886 18.6379 112.159 19.0252 112.532 19.2894C112.906 19.5535 113.356 19.6787 113.809 19.644C114.678 19.644 115.111 19.3719 115.111 18.8795C115.111 17.5223 109.176 18.2384 109.176 13.9707C109.176 11.2828 111.395 9.92673 113.91 9.92673C114.853 9.89646 115.787 10.1252 116.614 10.5893C117.442 11.0533 118.132 11.7356 118.613 12.565L115.526 14.267C115.391 13.9433 115.166 13.6674 114.878 13.4739C114.591 13.2802 114.254 13.1775 113.91 13.1783C113.282 13.1783 112.897 13.4203 112.897 13.8691C112.893 15.2844 118.828 14.3469 118.828 18.9073Z" fill="#181817"/>
<path d="M132.055 10.2776V22.609H128.436V21.4477C128.018 21.9593 127.487 22.3623 126.887 22.624C126.288 22.8855 125.636 22.9981 124.985 22.9525C122.548 22.9525 120.474 21.1767 120.474 17.8465V10.2776H124.093V17.307C124.062 17.6009 124.095 17.8982 124.189 18.1778C124.282 18.4575 124.434 18.7131 124.634 18.9267C124.834 19.1404 125.076 19.3068 125.345 19.4146C125.615 19.5225 125.903 19.569 126.192 19.5509C127.519 19.5509 128.44 18.7622 128.44 17.0106V10.2776H132.055Z" fill="#181817"/>
<path d="M152.801 15.0365V22.6091H149.183V15.3583C149.183 14.1256 148.603 13.3357 147.445 13.3357C146.238 13.3357 145.564 14.1994 145.564 15.6546V22.6091H141.944V15.3583C141.944 14.1256 141.365 13.3357 140.207 13.3357C139.001 13.3357 138.325 14.1994 138.325 15.6546V22.6091H134.706V10.2777H138.331V11.4075C138.706 10.9044 139.198 10.5054 139.763 10.2469C140.327 9.98854 140.947 9.8789 141.564 9.92807C142.183 9.89712 142.801 10.0307 143.354 10.3159C143.908 10.601 144.38 11.0279 144.725 11.5551C145.126 11.0036 145.657 10.565 146.269 10.2804C146.881 9.99586 147.554 9.87464 148.224 9.92807C150.993 9.93291 152.801 11.9543 152.801 15.0365Z" fill="#181817"/>
<path d="M155.862 10.2014C157.346 10.2014 158.548 8.97198 158.548 7.45543C158.548 5.93889 157.346 4.70947 155.862 4.70947C154.378 4.70947 153.175 5.93889 153.175 7.45543C153.175 8.97198 154.378 10.2014 155.862 10.2014Z" fill="#F6D88C"/>
<path d="M38.6365 4.60522H42.2564V22.6088H38.6365V4.60522ZM44.306 16.4431C44.3021 15.1502 44.6735 13.8853 45.3732 12.8084C46.0729 11.7315 47.0696 10.891 48.2368 10.3934C49.4042 9.89588 50.6896 9.76358 51.9306 10.0133C53.1715 10.263 54.312 10.8835 55.2077 11.7963C56.1034 12.709 56.7141 13.8728 56.9622 15.1406C57.2104 16.4083 57.0851 17.7227 56.602 18.9175C56.1189 20.1123 55.2999 21.1338 54.2486 21.8524C53.1973 22.5711 51.961 22.9548 50.6962 22.9548C49.8563 22.9639 49.023 22.8019 48.2449 22.4782C47.4669 22.1545 46.7598 21.6755 46.1649 21.0693C45.5699 20.463 45.0991 19.7417 44.78 18.9474C44.4608 18.1531 44.2998 17.3018 44.306 16.4431ZM53.4748 16.4431C53.4606 15.8854 53.2859 15.3444 52.9725 14.8877C52.6591 14.4311 52.2209 14.079 51.7128 13.8755C51.2045 13.6721 50.649 13.6263 50.1156 13.744C49.5821 13.8616 49.0944 14.1375 48.7135 14.5369C48.3326 14.9365 48.0754 15.4419 47.974 15.99C47.8727 16.5382 47.9316 17.1047 48.1437 17.6188C48.3557 18.1328 48.7113 18.5716 49.1659 18.8801C49.6206 19.1887 50.1541 19.3534 50.6998 19.3536C51.0735 19.3645 51.4454 19.296 51.7919 19.1527C52.1385 19.0095 52.4523 18.7943 52.7134 18.5208C52.9746 18.2474 53.1776 17.9216 53.3094 17.564C53.4412 17.2063 53.4992 16.8247 53.4795 16.4431H53.4748ZM71.5201 10.2738V21.9895C71.5201 26.1326 68.3593 27.883 65.1512 27.883C64.022 27.9701 62.891 27.7377 61.8823 27.2113C60.8737 26.6849 60.0263 25.8847 59.4331 24.8987L62.5205 23.0733C62.7697 23.5879 63.1668 24.0125 63.6585 24.2904C64.1502 24.5681 64.713 24.6858 65.2719 24.6278C65.6287 24.6775 65.9917 24.6448 66.3344 24.532C66.6771 24.4191 66.9906 24.2292 67.2519 23.9759C67.5131 23.7227 67.7153 23.4128 67.8437 23.0689C67.9721 22.7251 68.0233 22.3561 67.9936 21.9895V20.8548C67.5698 21.3846 67.0303 21.8056 66.4186 22.084C65.8068 22.3623 65.1397 22.4903 64.4707 22.4576C62.8785 22.4069 61.3679 21.7248 60.2591 20.5555C59.1503 19.3863 58.5302 17.8218 58.5302 16.1933C58.5302 14.5648 59.1503 13.0003 60.2591 11.831C61.3679 10.6618 62.8785 9.97958 64.4707 9.92899C65.1397 9.89628 65.8068 10.0242 66.4186 10.3026C67.0303 10.5809 67.5698 11.0019 67.9936 11.5319V10.2738H71.5201ZM67.9984 16.1927C68.0223 15.5971 67.8713 15.0079 67.5649 14.5006C67.2585 13.9934 66.8107 13.5915 66.2791 13.3465C65.7475 13.1015 65.1563 13.0247 64.5816 13.126C64.007 13.2272 63.475 13.5018 63.0542 13.9146C62.6334 14.3273 62.343 14.8592 62.2204 15.4419C62.0977 16.0247 62.1484 16.6316 62.3659 17.1848C62.5832 17.7378 62.9577 18.2118 63.4407 18.5457C63.9238 18.8795 64.4936 19.0581 65.0766 19.0584C65.4568 19.0857 65.8385 19.0314 66.1969 18.8989C66.5554 18.7664 66.8827 18.5587 67.1579 18.2891C67.4331 18.0196 67.6501 17.6941 67.7948 17.3337C67.9396 16.9732 68.0089 16.5858 67.9984 16.1964V16.1927ZM73.5697 16.4347C73.5658 15.1418 73.9371 13.8768 74.6369 12.8C75.3366 11.723 76.3332 10.8825 77.5005 10.385C78.6679 9.88742 79.9533 9.75511 81.1943 10.0048C82.4352 10.2546 83.5756 10.875 84.4714 11.7878C85.3671 12.7005 85.9777 13.8644 86.2259 15.1321C86.474 16.3998 86.3487 17.7143 85.8657 18.9091C85.3826 20.1038 84.5636 21.1253 83.5123 21.844C82.461 22.5626 81.2247 22.9463 79.9599 22.9463C79.1207 22.9554 78.2881 22.7937 77.5106 22.4704C76.7331 22.1473 76.0263 21.669 75.4315 21.0637C74.8366 20.4584 74.3658 19.7382 74.0461 18.9447C73.7264 18.1514 73.5645 17.301 73.5697 16.4431V16.4347ZM82.7385 16.4347C82.7245 15.8766 82.5499 15.3352 82.2365 14.8781C81.923 14.421 81.4846 14.0687 80.9762 13.865C80.4677 13.6613 79.9119 13.6154 79.3781 13.7331C78.8442 13.8507 78.3562 14.1267 77.9752 14.5264C77.594 14.9262 77.3366 15.432 77.2353 15.9804C77.1339 16.5289 77.1931 17.0959 77.4053 17.6101C77.6176 18.1245 77.9734 18.5633 78.4284 18.872C78.8835 19.1806 79.4175 19.3451 79.9635 19.3451C80.3361 19.3552 80.7066 19.2866 81.0521 19.1435C81.3975 19.0004 81.7103 18.7858 81.9708 18.5134C82.2313 18.241 82.434 17.9164 82.5661 17.5601C82.6983 17.2039 82.757 16.8236 82.7385 16.4431V16.4347Z" fill="#181817"/>
</svg>
