<svg width="158" height="16" viewBox="0 0 158 16" fill="none" xmlns="http://www.w3.org/2000/svg">
<path d="M78.5842 14.8418H73.2102V0.21479H78.5842V14.8418ZM73.735 14.3075H78.0594V0.749091H73.735V14.3075ZM86.0616 14.8418H80.7957V0.21479H91.7977C93.3738 0.0848474 94.9434 0.535339 96.2207 1.48429C96.7706 1.99648 97.1969 2.63111 97.4661 3.33863C97.7354 4.04616 97.8405 4.80747 97.7731 5.56315C97.8516 6.86895 97.4434 8.15687 96.6301 9.16969C95.6676 10.2939 94.0659 10.873 91.8701 10.8933C91.317 10.9083 87.1721 10.8933 86.0648 10.8933L86.0616 14.8418ZM81.3174 14.3075H85.5368V10.3537H85.8002C85.8538 10.3537 91.2351 10.3708 91.8575 10.3537C93.9032 10.3355 95.3737 9.8194 96.2333 8.81171C96.9574 7.89533 97.317 6.73557 97.241 5.56208C97.3055 4.88498 97.216 4.20185 96.9794 3.56565C96.7427 2.92946 96.3654 2.35731 95.8765 1.89357C94.6921 1.0281 93.243 0.621853 91.7904 0.748023H81.3205L81.3174 14.3075ZM90.683 7.60739H85.5011V3.62577H90.7177C91.0874 3.57375 91.4641 3.61769 91.8127 3.7535C92.1614 3.88932 92.4707 4.11261 92.7119 4.40265C92.9307 4.77339 93.0339 5.20301 93.0079 5.63475C93.0275 6.03558 92.9425 6.43457 92.7612 6.79098C92.5124 7.09647 92.1905 7.33164 91.8265 7.47387C91.4626 7.6161 91.0688 7.66061 90.683 7.60312V7.60739ZM86.0259 7.07309H90.683C91.5437 7.07309 92.0769 6.89036 92.3131 6.51421C92.4431 6.24081 92.502 5.93797 92.4841 5.63475C92.5071 5.31637 92.4393 4.99801 92.2889 4.71789L92.2826 4.70827C92.0328 4.33426 91.5363 4.16007 90.7177 4.16007H86.0259V7.07309ZM107.351 15.0577C102.638 15.0577 99.8251 13.8662 98.7534 11.4159C98.5781 10.9426 98.459 10.4497 98.3987 9.94763L98.3525 9.63987H103.96L103.996 9.86428C104.039 10.0921 104.135 10.3066 104.273 10.4905C104.495 10.763 105.234 11.2203 107.686 11.2203C110.633 11.2203 110.633 10.6935 110.633 10.4103C110.633 9.93267 110.292 9.76918 107.888 9.50844L107.432 9.46462C106.527 9.37807 105.383 9.268 104.86 9.22205C100.452 8.81598 98.4837 7.42145 98.4837 4.70186C98.4837 1.84548 101.833 0 107.017 0C111.246 0 113.971 1.13486 115.114 3.37572C115.384 3.89696 115.567 4.46141 115.652 5.04488L115.689 5.34516H110.076L110.052 5.10365C110.03 4.91491 109.952 4.73786 109.826 4.59713C109.616 4.31075 108.952 3.83736 106.893 3.83736C104.365 3.83736 104.016 4.16649 104.016 4.52126C104.016 4.99465 104.815 5.16242 107.375 5.44133C108.442 5.53002 110.158 5.70955 110.746 5.78222C114.442 6.19042 116.091 7.55075 116.091 10.1945C116.092 12.4118 114.575 15.0577 107.351 15.0577ZM98.9655 10.1742C99.0181 10.5266 99.1085 10.872 99.2352 11.2043C100.211 13.4366 102.867 14.5234 107.351 14.5234C111.1 14.5234 115.57 13.7754 115.57 10.1945C115.57 7.85103 114.111 6.69053 110.691 6.31331C110.103 6.24065 108.397 6.06219 107.332 5.97243C104.603 5.67108 103.493 5.51079 103.493 4.52126C103.493 3.49754 104.689 3.30305 106.895 3.30305C108.639 3.30305 109.765 3.62364 110.242 4.27014C110.373 4.42942 110.471 4.61311 110.532 4.81085H115.081C114.99 4.39757 114.845 3.99838 114.651 3.62364C113.601 1.57298 111.037 0.534302 107.019 0.534302C102.154 0.534302 99.0106 2.17033 99.0106 4.70186C99.0106 7.1169 100.775 8.30946 104.908 8.68989C105.433 8.73584 106.576 8.8459 107.483 8.93353L107.943 8.97734C110.175 9.21671 111.16 9.36631 111.16 10.4103C111.16 11.5345 109.887 11.7546 107.688 11.7546C105.654 11.7546 104.369 11.4437 103.872 10.8314C103.719 10.6361 103.604 10.4131 103.532 10.1742H98.9655ZM126.062 15.0395C120.583 15.0395 117.56 12.7837 117.56 8.68668V0.21479H122.863V8.68668C122.863 10.0919 124.098 10.8976 126.251 10.8976C128.308 10.8976 129.586 10.0566 129.586 8.70485V0.21479H134.834V9.13549C134.839 12.8874 131.639 15.0395 126.059 15.0395H126.062ZM118.085 0.749091V8.68668C118.085 13.7497 123.079 14.5052 126.062 14.5052C129.146 14.5052 134.317 13.8074 134.317 9.13549V0.749091H130.119V8.70485C130.119 10.3612 128.603 11.4319 126.259 11.4319C123.81 11.4319 122.347 10.4061 122.347 8.68668V0.749091H118.085ZM157.073 14.8418H152.068V8.23787L149.23 14.8418H144.865L142.056 8.25069V14.8418H137.034V0.21479H143.64L147.072 8.27954L150.67 0.21479H157.079L157.073 14.8418ZM152.593 14.3075H156.548V0.749091H151.004L147.055 9.59606L143.291 0.749091H137.554V14.3075H141.527V5.67963L145.201 14.3107H148.874L152.587 5.69245L152.593 14.3075ZM5.4906 0.481941H0.710693V14.5747H13.9189V10.8228H5.4906V0.481941ZM23.5669 0.161359C17.4656 0.161359 14.2569 3.10536 14.2569 7.42787C14.2569 12.3114 17.6251 14.7884 23.5669 14.7884C30.1081 14.7884 32.8591 11.916 32.8591 7.42787C32.8591 2.87027 29.7554 0.159222 23.5669 0.159222V0.161359ZM23.5491 3.82346C23.9644 3.82148 24.3795 3.8461 24.7918 3.8972L19.4483 9.33746C19.1954 8.75518 19.0721 8.1231 19.0872 7.48664C19.0872 5.2757 20.1809 3.82133 23.5491 3.82133V3.82346ZM23.5669 11.184C23.1667 11.1858 22.7668 11.163 22.3693 11.1156L27.7223 5.66574C27.9657 6.2384 28.0822 6.85865 28.0635 7.48236C28.0635 9.63346 27.0558 11.1819 23.5669 11.1819V11.184ZM42.3297 9.26052H47.2492C47.1768 9.60814 47.0259 9.93374 46.8084 10.2116C45.7885 11.0575 44.4869 11.4691 43.1757 11.3603C42.5157 11.4322 41.8484 11.3588 41.2187 11.1451C40.589 10.9315 40.0118 10.5825 39.5262 10.1218C39.0288 9.37903 38.7925 8.48696 38.8555 7.59029C38.775 6.65071 39.032 5.71331 39.5787 4.95191C40.2662 4.16114 41.4302 3.82026 43.1411 3.82026C44.2296 3.7285 45.3168 4.01312 46.2269 4.62812C46.5138 4.8601 46.7282 5.17195 46.8441 5.52575H51.4067C51.3736 4.9428 51.2358 4.37094 51.0005 3.83842C49.9079 1.57619 47.3678 0.22975 43.0487 0.22975C39.2922 0.22975 36.771 1.39667 35.3782 3.15666C34.4583 4.42761 33.9861 5.97717 34.0378 7.55503C33.9783 9.16862 34.4383 10.7577 35.3477 12.0806C36.7238 13.8972 39.1746 14.7905 42.1198 14.7905C44.0778 14.9296 46.0226 14.3712 47.6208 13.2111L47.7446 14.5747H51.5348V6.22675H42.3297V9.26052ZM62.2922 0.158153C56.1919 0.158153 52.9822 3.10216 52.9822 7.42466C52.9822 12.3082 56.3493 14.7852 62.2922 14.7852C68.8344 14.7852 71.5854 11.9128 71.5854 7.42466C71.5854 2.87027 68.4817 0.159222 62.2922 0.159222V0.158153ZM62.2754 3.82026C62.6798 3.81904 63.0839 3.84259 63.4856 3.89079L58.163 9.31288C57.9181 8.73701 57.7988 8.11402 57.8135 7.48664C57.8093 5.2757 58.9072 3.82133 62.2754 3.82133V3.82026ZM62.2922 11.1808C61.8814 11.1826 61.4709 11.1583 61.0631 11.1081L66.4339 5.63902C66.6866 6.21931 66.8075 6.85009 66.7877 7.4845C66.7898 9.63346 65.7863 11.1819 62.2922 11.1819V11.1808Z" fill="#181817"/>
</svg>
