<svg width="49" height="48" viewBox="0 0 49 48" fill="none" xmlns="http://www.w3.org/2000/svg">
<path d="M32.1071 31.7142C37.2149 23.6993 36.5728 24.6992 36.72 24.4902C38.5796 21.8673 39.5625 18.7802 39.5625 15.5625C39.5625 7.02938 32.638 0 24.0938 0C15.5773 0 8.625 7.0155 8.625 15.5625C8.625 18.7781 9.6285 21.946 11.5491 24.6043L16.0802 31.7143C11.2357 32.4588 3 34.6774 3 39.5625C3 41.3433 4.16231 43.8811 9.69956 45.8587C13.566 47.2395 18.6779 48 24.0938 48C34.2211 48 45.1875 45.1432 45.1875 39.5625C45.1875 34.6765 36.9615 32.4603 32.1071 31.7142ZM13.8983 23.0573C13.8829 23.0332 13.8667 23.0095 13.8499 22.9863C12.2517 20.7877 11.4375 18.182 11.4375 15.5625C11.4375 8.52956 17.1006 2.8125 24.0938 2.8125C31.0724 2.8125 36.75 8.53209 36.75 15.5625C36.75 18.1862 35.9512 20.7035 34.4394 22.8442C34.304 23.0228 35.0107 21.9248 24.0938 39.0552L13.8983 23.0573ZM24.0938 45.1875C13.0318 45.1875 5.8125 41.936 5.8125 39.5625C5.8125 37.9673 9.522 35.3442 17.742 34.3218L22.9078 42.4277C23.166 42.8329 23.6132 43.0781 24.0937 43.0781C24.5741 43.0781 25.0214 42.8328 25.2795 42.4277L30.4452 34.3218C38.6654 35.3442 42.375 37.9673 42.375 39.5625C42.375 41.9158 35.2207 45.1875 24.0938 45.1875Z" fill="#005AA6"/>
<path d="M24.0938 8.53125C20.2167 8.53125 17.0625 11.6855 17.0625 15.5625C17.0625 19.4395 20.2167 22.5938 24.0938 22.5938C27.9708 22.5938 31.125 19.4395 31.125 15.5625C31.125 11.6855 27.9708 8.53125 24.0938 8.53125ZM24.0938 19.7812C21.7675 19.7812 19.875 17.8887 19.875 15.5625C19.875 13.2363 21.7675 11.3438 24.0938 11.3438C26.42 11.3438 28.3125 13.2363 28.3125 15.5625C28.3125 17.8887 26.42 19.7812 24.0938 19.7812Z" fill="#005AA6"/>
</svg>
