<svg width="50" height="50" viewBox="0 0 50 50" fill="none" xmlns="http://www.w3.org/2000/svg">
<g clip-path="url(#clip0_69_405)">
<path d="M5.00006 13.3282V20.0001C4.97755 20.2321 5.00382 20.4664 5.07721 20.6877C5.15059 20.909 5.26946 21.1125 5.42617 21.2852C5.58288 21.4578 5.77397 21.5958 5.98717 21.6902C6.20037 21.7846 6.43096 21.8334 6.66412 21.8334C6.89729 21.8334 7.12788 21.7846 7.34108 21.6902C7.55427 21.5958 7.74537 21.4578 7.90208 21.2852C8.05879 21.1125 8.17766 20.909 8.25104 20.6877C8.32442 20.4664 8.3507 20.2321 8.32819 20.0001V13.3282H10.0001V13.4844C10.0402 13.898 10.2328 14.2817 10.5405 14.561C10.8481 14.8402 11.2487 14.9949 11.6641 14.9949C12.0796 14.9949 12.4802 14.8402 12.7878 14.561C13.0954 14.2817 13.2881 13.898 13.3282 13.4844V9.84381C13.3507 9.61173 13.3244 9.37751 13.251 9.15619C13.1777 8.93488 13.0588 8.73135 12.9021 8.5587C12.7454 8.38605 12.5543 8.24809 12.3411 8.15368C12.1279 8.05927 11.8973 8.0105 11.6641 8.0105C11.431 8.0105 11.2004 8.05927 10.9872 8.15368C10.774 8.24809 10.5829 8.38605 10.4262 8.5587C10.2695 8.73135 10.1506 8.93488 10.0772 9.15619C10.0038 9.37751 9.97755 9.61173 10.0001 9.84381V10.0001H5.00006C4.76798 9.97755 4.53376 10.0038 4.31244 10.0772C4.09113 10.1506 3.8876 10.2695 3.71495 10.4262C3.5423 10.5829 3.40434 10.774 3.30993 10.9872C3.21552 11.2004 3.16675 11.431 3.16675 11.6641C3.16675 11.8973 3.21552 12.1279 3.30993 12.3411C3.40434 12.5543 3.5423 12.7454 3.71495 12.9021C3.8876 13.0588 4.09113 13.1777 4.31244 13.251C4.53376 13.3244 4.76798 13.3507 5.00006 13.3282Z" fill="white"/>
<path d="M5.00006 26.6719V33.3438C4.97755 33.5759 5.00383 33.8101 5.07721 34.0314C5.15059 34.2527 5.26946 34.4563 5.42617 34.6289C5.58288 34.8016 5.77397 34.9395 5.98717 35.0339C6.20037 35.1283 6.43096 35.1771 6.66412 35.1771C6.89729 35.1771 7.12788 35.1283 7.34108 35.0339C7.55428 34.9395 7.74537 34.8016 7.90208 34.6289C8.05879 34.4563 8.17766 34.2527 8.25104 34.0314C8.32442 33.8101 8.3507 33.5759 8.32819 33.3438V26.6719H10.0001V26.8282C9.97755 27.0603 10.0038 27.2945 10.0772 27.5158C10.1506 27.7371 10.2695 27.9406 10.4262 28.1133C10.5829 28.2859 10.774 28.4239 10.9872 28.5183C11.2004 28.6127 11.431 28.6615 11.6641 28.6615C11.8973 28.6615 12.1279 28.6127 12.3411 28.5183C12.5543 28.4239 12.7454 28.2859 12.9021 28.1133C13.0588 27.9406 13.1777 27.7371 13.251 27.5158C13.3244 27.2945 13.3507 27.0603 13.3282 26.8282V23.1876C13.3507 22.9555 13.3244 22.7213 13.251 22.4999C13.1777 22.2786 13.0588 22.0751 12.9021 21.9025C12.7454 21.7298 12.5543 21.5918 12.3411 21.4974C12.1279 21.403 11.8973 21.3542 11.6641 21.3542C11.431 21.3542 11.2004 21.403 10.9872 21.4974C10.774 21.5918 10.5829 21.7298 10.4262 21.9025C10.2695 22.0751 10.1506 22.2786 10.0772 22.4999C10.0038 22.7213 9.97755 22.9555 10.0001 23.1876V23.3438H5.00006C4.58654 23.3839 4.20277 23.5766 3.92354 23.8842C3.64431 24.1918 3.48962 24.5924 3.48962 25.0079C3.48962 25.4233 3.64431 25.8239 3.92354 26.1315C4.20277 26.4392 4.58654 26.6318 5.00006 26.6719Z" fill="white"/>
<path d="M38.3282 5.94352e-06H13.3282C11.4809 -0.00220234 9.68546 0.611003 8.22545 1.74279C6.76544 2.87458 5.72404 4.46046 5.26569 6.25001C5.18254 6.66936 5.2632 7.10464 5.49109 7.46636C5.71899 7.82808 6.07679 8.08875 6.49095 8.19479C6.90511 8.30083 7.34416 8.24418 7.71784 8.03649C8.09152 7.8288 8.37144 7.48585 8.50006 7.07813C8.77419 6.00569 9.3975 5.05502 10.2717 4.37602C11.1459 3.69703 12.2213 3.32835 13.3282 3.32813H38.3282C39.6543 3.32813 40.926 3.85492 41.8637 4.7926C42.8014 5.73028 43.3282 7.00205 43.3282 8.32813V41.6719C43.3282 42.998 42.8014 44.2697 41.8637 45.2074C40.926 46.1451 39.6543 46.6719 38.3282 46.6719H13.3282C12.0021 46.6719 10.7303 46.1451 9.79265 45.2074C8.85497 44.2697 8.32819 42.998 8.32819 41.6719V40H10.0001V40.1563C9.97755 40.3883 10.0038 40.6226 10.0772 40.8439C10.1506 41.0652 10.2695 41.2687 10.4262 41.4414C10.5829 41.614 10.774 41.752 10.9872 41.8464C11.2004 41.9408 11.431 41.9896 11.6641 41.9896C11.8973 41.9896 12.1279 41.9408 12.3411 41.8464C12.5543 41.752 12.7454 41.614 12.9021 41.4414C13.0588 41.2687 13.1777 41.0652 13.251 40.8439C13.3244 40.6226 13.3507 40.3883 13.3282 40.1563V36.5156C13.2881 36.1021 13.0954 35.7183 12.7878 35.4391C12.4802 35.1599 12.0796 35.0052 11.6641 35.0052C11.2487 35.0052 10.8481 35.1599 10.5405 35.4391C10.2328 35.7183 10.0402 36.1021 10.0001 36.5156V36.6719H5.00006C4.76798 36.6494 4.53376 36.6756 4.31244 36.749C4.09113 36.8224 3.8876 36.9413 3.71495 37.098C3.5423 37.2547 3.40434 37.4458 3.30993 37.659C3.21552 37.8722 3.16675 38.1028 3.16675 38.3359C3.16675 38.5691 3.21552 38.7997 3.30993 39.0129C3.40434 39.2261 3.5423 39.4172 3.71495 39.5739C3.8876 39.7306 4.09113 39.8495 4.31244 39.9229C4.53376 39.9962 4.76798 40.0225 5.00006 40V41.6719C5.00419 43.8794 5.88294 45.9953 7.44387 47.5562C9.00481 49.1171 11.1207 49.9959 13.3282 50H38.3282C40.5357 49.9959 42.6516 49.1171 44.2125 47.5562C45.7734 45.9953 46.6522 43.8794 46.6563 41.6719V8.32813C46.6522 6.12064 45.7734 4.00475 44.2125 2.44382C42.6516 0.882887 40.5357 0.00413596 38.3282 5.94352e-06Z" fill="white"/>
<path d="M26.6719 27.1094C25.4357 27.1094 24.2274 26.7428 23.1996 26.0561C22.1718 25.3693 21.3707 24.3932 20.8976 23.2511C20.4246 22.1091 20.3008 20.8524 20.542 19.6401C20.7831 18.4277 21.3784 17.314 22.2525 16.44C23.1265 15.5659 24.2402 14.9706 25.4526 14.7295C26.6649 14.4883 27.9216 14.6121 29.0636 15.0851C30.2057 15.5582 31.1818 16.3593 31.8686 17.3871C32.5553 18.4149 32.9219 19.6232 32.9219 20.8594C32.9219 22.517 32.2634 24.1067 31.0913 25.2788C29.9192 26.4509 28.3295 27.1094 26.6719 27.1094ZM26.6719 18.0469C26.1063 18.0469 25.5535 18.2146 25.0833 18.5288C24.6131 18.843 24.2466 19.2895 24.0302 19.812C23.8137 20.3345 23.7571 20.9094 23.8674 21.4641C23.9778 22.0188 24.2501 22.5282 24.65 22.9281C25.0499 23.328 25.5594 23.6004 26.114 23.7107C26.6687 23.821 27.2436 23.7644 27.7661 23.548C28.2886 23.3316 28.7352 22.9651 29.0494 22.4948C29.3636 22.0246 29.5313 21.4718 29.5313 20.9063C29.5313 20.1479 29.23 19.4206 28.6938 18.8844C28.1575 18.3481 27.4302 18.0469 26.6719 18.0469Z" fill="white"/>
<path d="M33.3281 34.9062C33.0967 34.9088 32.8673 34.8629 32.6546 34.7714C32.442 34.6799 32.251 34.5448 32.0938 34.3749C31.4024 33.6108 30.5585 33 29.6165 32.582C28.6746 32.164 27.6555 31.948 26.625 31.948C25.5945 31.948 24.5754 32.164 23.6335 32.582C22.6915 33 21.8477 33.6108 21.1563 34.3749C21.0196 34.5734 20.8416 34.7401 20.6345 34.8634C20.4275 34.9867 20.1962 35.0637 19.9565 35.0893C19.7169 35.1149 19.4745 35.0883 19.2461 35.0115C19.0177 34.9346 18.8086 34.8093 18.6331 34.6441C18.4576 34.4789 18.3199 34.2777 18.2295 34.0543C18.139 33.8309 18.098 33.5906 18.1091 33.3498C18.1202 33.1091 18.1832 32.8736 18.2938 32.6594C18.4045 32.4453 18.5601 32.2577 18.75 32.1093C19.7527 31.0152 20.972 30.1416 22.3303 29.544C23.6887 28.9463 25.1566 28.6377 26.6406 28.6377C28.1247 28.6377 29.5925 28.9463 30.9509 29.544C32.3093 30.1416 33.5286 31.0152 34.5313 32.1093C34.7491 32.3488 34.8927 32.6463 34.9447 32.9659C34.9967 33.2854 34.9548 33.6132 34.824 33.9093C34.6933 34.2055 34.4794 34.4574 34.2083 34.6343C33.9373 34.8113 33.6206 34.9057 33.2969 34.9062H33.3281Z" fill="white"/>
</g>
<defs>
<clipPath id="clip0_69_405">
<rect width="50" height="50" fill="white"/>
</clipPath>
</defs>
</svg>
