<svg width="25" height="25" viewBox="0 0 25 25" fill="none" xmlns="http://www.w3.org/2000/svg">
<rect x="0.859985" y="0.5" width="23.36" height="23.36" rx="11.68" stroke="#005AA6"/>
<path d="M18.4557 8.80992C18.0368 9.00667 17.5938 9.13745 17.1402 9.1982C17.6182 8.89283 17.9755 8.40926 18.1445 7.83914C17.6971 8.12488 17.2076 8.32612 16.6972 8.43417C16.3842 8.07402 15.9778 7.82362 15.5309 7.71552C15.0839 7.60741 14.6171 7.64661 14.1911 7.82802C13.7651 8.00942 13.3997 8.32464 13.1423 8.73269C12.8849 9.14073 12.7474 9.62273 12.7478 10.116C12.7461 10.3043 12.7638 10.4921 12.8008 10.6761C11.8925 10.6282 11.0039 10.3743 10.193 9.93123C9.38214 9.48812 8.66722 8.86572 8.09502 8.10469C7.80125 8.6455 7.71021 9.28664 7.84049 9.89727C7.97077 10.5079 8.31254 11.042 8.79605 11.3905C8.43483 11.38 8.08124 11.2761 7.76508 11.0877V11.1144C7.76568 11.6822 7.94788 12.2323 8.28103 12.6723C8.61418 13.1123 9.07793 13.4153 9.59421 13.5302C9.39889 13.5857 9.1976 13.6129 8.99562 13.6112C8.85059 13.614 8.7057 13.5999 8.56347 13.5692C8.71102 14.0571 8.99539 14.4838 9.37742 14.7905C9.75946 15.0972 10.2204 15.2688 10.6968 15.2817C9.88865 15.9623 8.89204 16.3315 7.86617 16.3303C7.68353 16.3316 7.501 16.3203 7.3197 16.2965C8.36361 17.0209 9.58005 17.404 10.8219 17.3997C15.0229 17.3997 17.3198 13.6524 17.3198 10.4041C17.3198 10.2954 17.3163 10.1905 17.3114 10.0863C17.7617 9.73929 18.1495 9.30675 18.4557 8.80992Z" fill="#005AA6"/>
</svg>
